<?xml version="1.0" standalone="no"?>
<!DOCTYPE svg PUBLIC "-//W3C//DTD SVG 20010904//EN"
 "http://www.w3.org/TR/2001/REC-SVG-20010904/DTD/svg10.dtd">
<svg version="1.0" xmlns="http://www.w3.org/2000/svg"
 width="578.000000pt" height="432.000000pt" viewBox="0 0 578.000000 432.000000"
 preserveAspectRatio="xMidYMid meet">

<g transform="translate(0.000000,432.000000) scale(0.100000,-0.100000)">
<path d="M820 3955 l0 -345 -29 0 c-15 0 -86 -5 -157 -11 -71 -6 -237 -14
-368 -17 l-239 -7 181 -170 182 -169 0 -1006 0 -1007 63 -59 c34 -33 131 -120
215 -193 l152 -132 0 -299 c0 -184 4 -301 10 -305 5 -3 56 1 112 9 124 18 605
70 848 91 96 9 296 18 443 22 l269 6 116 -114 c64 -63 149 -145 187 -182 l71
-67 188 181 187 182 307 -6 c313 -6 535 -21 857 -58 216 -24 478 -57 523 -65
l32 -6 0 290 c0 160 3 297 6 305 3 8 80 82 172 163 92 81 191 170 220 198 l52
50 0 428 c0 240 -4 429 -9 432 -8 5 -582 136 -595 136 -3 0 -6 6 -5 13 1 11
91 93 480 435 l129 113 0 233 0 233 121 109 c66 60 146 132 177 161 l57 52
-140 0 c-125 0 -330 10 -575 29 l-85 7 -3 343 -2 342 -2075 0 -2075 0 0 -345z
m1730 100 c28 -25 47 -46 43 -46 -29 -5 -164 -6 -775 -8 l-688 -1 0 -165 0
-165 -45 0 -45 0 0 215 0 215 730 0 729 0 51 -45z m2210 -164 c0 -116 -3 -212
-7 -214 -5 -2 -25 -2 -45 0 l-38 5 -2 160 -3 160 -750 -1 -750 -2 50 51 49 50
748 0 748 0 0 -209z m-1640 152 c0 -5 -56 -66 -124 -138 l-124 -130 -31 30
-30 30 101 108 100 107 54 0 c30 0 54 -3 54 -7z m-805 -238 l60 -55 -43 0
c-40 0 -49 5 -100 55 l-57 55 40 -1 c34 0 49 -8 100 -54z m1245 48 c0 -4 -21
-29 -47 -55 -40 -41 -53 -48 -85 -48 -21 0 -38 3 -38 8 0 4 23 28 52 54 40 36
61 47 86 48 17 0 32 -3 32 -7z m-1670 -68 l23 -25 -311 0 -312 0 0 25 0 25
288 0 289 0 23 -25z m2610 0 l0 -25 -322 0 -323 1 28 24 28 25 295 0 294 0 0
-25z m-1523 -290 c66 -20 134 -80 164 -147 l24 -53 0 -445 0 -445 -26 -55
c-31 -67 -73 -110 -133 -139 -46 -21 -63 -23 -491 -71 -104 -12 -197 -22 -205
-23 -13 -2 -15 -42 -11 -305 3 -248 1 -303 -10 -307 -8 -2 -81 -11 -164 -20
-82 -9 -176 -18 -207 -22 l-58 -6 0 1007 0 1006 26 0 c14 0 89 5 167 11 173
12 507 25 718 27 113 2 169 -2 206 -13z m772 -1 l31 -6 0 -1000 0 -999 -162 6
c-90 3 -187 8 -215 11 l-53 5 0 995 0 994 184 0 c101 0 198 -3 215 -6z m-2074
-223 c0 -104 -2 -192 -5 -195 -3 -3 -77 -12 -165 -21 -88 -8 -224 -22 -302
-31 l-143 -17 0 -203 0 -203 28 4 c15 3 113 16 217 30 105 14 205 28 223 31
l32 5 0 -203 0 -204 -247 -34 -248 -35 -3 -213 -2 -212 22 4 c67 15 580 87
585 83 1 -2 5 -91 9 -198 5 -136 4 -198 -4 -203 -6 -3 -95 -17 -199 -31 -282
-37 -449 -62 -643 -96 -96 -18 -182 -32 -190 -33 -13 -1 -15 113 -16 949 l-2
950 -83 77 c-53 50 -77 79 -68 82 19 5 623 63 859 81 102 8 205 16 230 18 25
2 61 4 80 5 l35 2 0 -189z m2826 174 c185 -14 703 -69 761 -81 l26 -5 -43 -40
-44 -40 -3 -184 c-3 -168 -5 -186 -24 -212 -37 -49 -89 -70 -236 -92 -75 -12
-142 -21 -148 -21 -8 0 -11 37 -9 121 1 66 -1 122 -3 124 -7 7 -249 35 -303
35 l-51 0 1 -615 c0 -608 0 -616 20 -620 25 -5 317 -45 328 -45 4 0 7 47 7
105 0 77 3 105 13 105 6 0 101 -16 210 -37 l197 -37 0 -308 c0 -240 -3 -308
-12 -308 -7 0 -31 5 -53 10 -79 18 -453 80 -693 114 -265 38 -319 55 -381 116
-18 19 -43 54 -55 79 -21 46 -21 51 -21 852 l0 805 30 59 c33 64 88 111 146
125 52 12 127 11 340 -5z m-1035 -2225 c477 -27 926 -69 946 -89 4 -3 9 -123
10 -266 l3 -259 110 -18 c61 -9 116 -17 123 -17 9 -1 12 47 12 209 0 116 3
210 6 210 4 0 24 -5 45 -12 l39 -11 0 -249 c0 -242 -1 -248 -20 -248 -11 0
-132 13 -270 30 -264 31 -495 52 -805 71 -249 16 -1160 16 -1430 0 -429 -25
-902 -68 -1110 -101 -33 -6 -66 -10 -72 -10 -10 0 -13 57 -13 250 l0 249 38
10 c20 6 40 11 45 11 4 0 7 -94 7 -208 l0 -208 130 20 130 20 0 262 0 262 38
6 c161 26 755 75 1072 89 174 8 808 6 966 -3z m-646 -795 c28 -25 55 -45 59
-45 5 0 32 21 60 46 40 36 56 45 81 42 l31 -3 -84 -83 -84 -84 -84 78 c-46 43
-85 82 -87 86 -2 4 10 8 27 8 22 0 44 -13 81 -45z"/>
<path d="M2496 3094 c-88 -7 -169 -14 -180 -16 -20 -3 -21 -7 -17 -278 1 -151
4 -276 5 -277 2 -3 330 34 384 43 l32 5 0 269 0 270 -32 -1 c-18 -1 -105 -7
-192 -15z"/>
<path d="M2875 1055 c-114 -40 -146 -183 -61 -268 106 -106 295 -39 298 106 1
71 -41 131 -114 162 -45 18 -71 18 -123 0z m120 -100 c34 -33 32 -70 -5 -107
-26 -25 -36 -29 -63 -24 -67 13 -92 95 -41 135 36 28 79 27 109 -4z"/>
<path d="M2377 1043 c-4 -3 -7 -76 -7 -160 l0 -154 48 3 47 3 3 43 3 42 45 0
c114 0 179 78 138 165 -25 53 -57 65 -172 65 -54 0 -102 -3 -105 -7z m191
-105 c3 -22 -2 -30 -23 -38 -14 -5 -37 -10 -51 -10 -21 0 -24 4 -24 41 l0 40
48 -3 c43 -3 47 -5 50 -30z"/>
<path d="M3238 895 l3 -155 44 0 45 0 0 40 c0 36 3 40 25 40 17 0 33 -12 55
-45 30 -43 33 -45 81 -45 l51 0 -22 33 c-43 65 -44 72 -16 100 48 48 26 145
-39 173 -22 9 -70 14 -132 14 l-98 0 3 -155z m190 59 c5 -9 7 -25 5 -35 -4
-15 -15 -19 -54 -19 l-49 0 0 35 c0 35 0 35 45 35 30 0 47 -5 53 -16z"/>
<path d="M2022 1023 c-60 -29 -82 -113 -41 -152 13 -12 49 -24 91 -31 55 -10
68 -15 66 -28 -4 -24 -51 -27 -110 -7 -48 16 -49 15 -68 -7 -11 -13 -19 -26
-20 -30 -1 -20 88 -51 145 -51 92 0 141 31 152 97 8 50 -34 91 -103 102 -27 4
-58 10 -69 14 -19 7 -18 9 8 21 23 10 37 10 74 1 25 -7 46 -11 47 -10 0 2 9
18 19 36 l18 32 -35 15 c-46 20 -133 19 -174 -2z"/>
<path d="M3620 1000 l0 -40 50 0 50 0 0 -115 0 -115 45 0 44 0 3 113 3 112 46
3 c43 3 47 5 53 34 3 16 3 34 0 39 -3 5 -70 9 -150 9 l-144 0 0 -40z"/>
<path d="M1673 1011 l-123 -14 0 -157 0 -158 48 6 c26 2 83 10 127 16 l80 11
0 40 c0 26 -4 39 -12 38 -7 -2 -44 -6 -83 -9 -60 -6 -70 -5 -70 9 0 11 12 18
38 22 96 16 92 14 92 52 l0 35 -66 -7 c-60 -6 -66 -5 -62 12 3 19 30 27 121
38 46 6 47 7 47 40 0 19 -3 35 -7 37 -5 2 -63 -3 -130 -11z"/>
<path d="M4041 999 c-46 -44 -49 -107 -6 -135 13 -8 52 -23 87 -33 39 -11 63
-23 63 -32 0 -19 -65 -15 -123 7 -41 15 -44 15 -57 -2 -8 -11 -14 -26 -12 -33
6 -39 143 -79 206 -61 53 15 81 47 81 92 0 51 -30 79 -110 103 -67 20 -80 30
-50 40 18 6 60 -2 102 -20 12 -5 21 2 32 24 21 39 21 36 -18 55 -21 10 -60 16
-103 16 -56 0 -73 -4 -92 -21z"/>
</g>
</svg>
